<svg width="42" height="40" viewBox="0 0 42 40" fill="none" xmlns="http://www.w3.org/2000/svg">
<path d="M40.3787 25.0886C37.3014 21.8933 28.899 23.1952 26.8873 23.4318C23.9288 20.5914 21.9171 17.1595 21.207 15.9761C22.272 12.7808 22.9818 9.58547 23.1004 6.15379C23.1004 3.19507 21.9171 0 18.6032 0C17.4198 0 16.3546 0.709844 15.7628 1.65656C14.3428 4.14205 14.9344 9.1125 17.183 14.2013C15.8813 17.8698 14.6977 21.4201 11.3841 27.6924C7.95216 29.1121 0.733089 32.426 0.141294 35.9765C-0.0953202 37.0413 0.259601 38.1068 1.08801 38.935C1.91642 39.6451 2.98144 40 4.04673 40C8.42539 40 12.6857 33.9648 15.6445 28.8755C18.1297 28.0473 22.0351 26.8638 25.9405 26.1537C30.5558 30.1774 34.5796 30.7689 36.7099 30.7689C39.55 30.7689 40.6153 29.5856 40.9702 28.5203C41.5618 27.3372 41.2068 26.0353 40.3787 25.0886ZM37.4197 27.1006C37.3014 27.929 36.2366 28.7572 34.3429 28.284C32.0943 27.6924 30.0826 26.6271 28.3075 25.2069C29.846 24.9701 33.2777 24.6151 35.7632 25.0886C36.7099 25.3252 37.6566 25.917 37.4197 27.1006ZM17.6565 2.72158C17.8931 2.36666 18.2483 2.13005 18.6032 2.13005C19.6682 2.13005 19.9048 3.43169 19.9048 4.49697C19.7865 6.98245 19.313 9.46742 18.4849 11.8343C16.7095 7.1005 17.0647 3.78661 17.6565 2.72158ZM17.4198 25.6804C18.3666 23.787 19.6685 20.4731 20.1417 19.0529C21.2067 20.8278 22.9818 22.9583 23.9288 23.905C23.9288 24.0236 20.26 24.7335 17.4198 25.6804ZM10.4374 30.4143C7.71554 34.9112 4.87513 37.7514 3.33662 37.7514C3.10001 37.7514 2.86314 37.6331 2.62652 37.5148C2.27134 37.2779 2.15303 36.923 2.27134 36.4497C2.62652 34.7929 5.70354 32.5443 10.4374 30.4143Z" fill="#FA0F00"/>
</svg>
